# xmcd
#
# Track frame offsets: 
#        150
#        18125
#        34200
#        50725
#
# Disc length: 854 seconds
#
# Revision: 0
# Processed by: cddbd v1.5PL3 Copyright (c) Steve Scherf et al.
# Submitted via: ExactAudioCopy v0.95a3
#
DISCID=2b035404
DTITLE=The Rockingbirds - Rockingbirds "R" Us
DYEAR=1993
DGENRE=Country
TTITLE0=Gladly...
TTITLE1=I'm A Little Less Lonely
TTITLE2=It Won't Be Long
TTITLE3=Harden Up Your Heart
EXTD=
EXTT0=
EXTT1=
EXTT2=
EXTT3=
PLAYORDER=
